# xmcd
#
# Track frame offsets: 
#        150
#        17586
#        36730
#        53995
#        71647
#        102798
#        122942
#        142443
#        175225
#        201492
#        230960
#
# Disc length: 3378 seconds
#
# Revision: 0
# Processed by: cddbd v1.5.2PL0 Copyright (c) Steve Scherf et al.
# Submitted via: ExactAudioCopy v1.3
#
DISCID=b40d300b
DTITLE=The Soul Searchers - Boogie Woogie Nighthawk
DYEAR=2014
DGENRE=Blues
TTITLE0=Hit It
TTITLE1=Hard Way
TTITLE2=Sen-Sa-Shun
TTITLE3=See See Baby
TTITLE4=Bonneville Special
TTITLE5=Boogie Woogie Nighthawk
TTITLE6=Burns Farm Stomp
TTITLE7=You've Got To Love Her With A Feeling
TTITLE8=T-Bone Boogie
TTITLE9=You Don't Love Me
TTITLE10=Come Back To Me, Baby
EXTD=
EXTT0=
EXTT1=
EXTT2=
EXTT3=
EXTT4=
EXTT5=
EXTT6=
EXTT7=
EXTT8=
EXTT9=
EXTT10=
PLAYORDER=
